{"title":"Dead.Space.Aftermath.2011.DVDRip.Xvid.AC3.-Spasm","uid":6233141,"size":734020758,"categoryP":"video","categoryS":"movies","magnet":"?xt=urn:btih:4dd9d96770d6364f63d9a374c6b1b0adeb6106ba&amp;dn=Dead.Space.Aftermath.2011.DVDRip.Xvid.AC3.-Spasm&amp;tr=udp%3A%2F%2Ftracker.openbittorrent.com%3A80&amp;tr=udp%3A%2F%2Fopen.demonii.com%3A1337&amp;tr=udp%3A%2F%2Ftracker.coppersurfer.tk%3A6969&amp;tr=udp%3A%2F%2Fexodus.desync.com%3A6969","seeders":0,"leechers":0,"uploader":"_Ultra_","files":41,"time":1299778265,"description":"Complete name                    : Dead Space Aftermath 2011 DVDRip Xvid AC3 - \nFormat                           : AVI\nFormat/Info                      : Audio Video Interleave\nFormat profile                   : OpenDML\nFile size                        : 702 MiB\nDuration                         : 1h 17mn\nOverall bit rate                 : 1 263 Kbps\nWriting application              : AVI-Mux GUI 1.17.8.3, Feb 16 201019:42:50\nEncoded by                       : 202122\nSource                           : Dead Space Aftermath 2011 NTSC DVDR-SADPANDA\nSubtitles                        : n/a\nLanguage                         : English\n\nVideo\n\nID                               : 0\nFormat                           : MPEG-4 Visual\nFormat profile                   : Advanced Simple@L5\nFormat settings, BVOP            : Yes\nFormat settings, QPel            : No\nFormat settings, GMC             : No warppoints\nFormat settings, Matrix          : Default (H.263)\nCodec ID                         : XVID\nCodec ID/Hint                    : XviD\nDuration                         : 1h 17mn\nBit rate                         : 810 Kbps\nWidth                            : 720 pixels\nHeight                           : 304 pixels\nDisplay aspect ratio             : 2.35:1\nFrame rate                       : 23.976 fps\nColor space                      : YUV\nChroma subsampling               : 4:2:0\nBit depth                        : 8 bits\nScan type                        : Progressive\nCompression mode                 : Lossy\nBits/(Pixel*Frame)               : 0.154\nStream size                      : 450 MiB (64%)\nWriting library                  : XviD 1.2.1 (UTC 2008-12-04)\n\n\n\n\nAudio\n\nID                               : 1\nFormat                           : AC-3\nFormat/Info                      : Audio Coding 3\nMode extension                   : CM (complete main)\nCodec ID                         : 2000\nDuration                         : 1h 17mn\nBit rate mode                    : Constant\nBit rate                         : 448 Kbps\nChannel(s)                       : 6 channels\nChannel positions                : Front: L C R, Side: L R, LFE\nSampling rate                    : 48.0 KHz\nBit depth                        : 16 bits\nCompression mode                 : Lossy\nStream size                      : 249 MiB (35%)\nAlignment                        : Aligned on interleaves\nInterleave, duration             : 64 ms (1.53 video frames)\nInterleave, preload duration     : 192 ms\nTitle                            : VTS_01_1 T80 3_2ch 448Kbps DELAY 0ms_new\n\niMDB: http://www.imdb.com/title/tt1711366\n\n\nPlot\n\nThe End was only the Begining","torrent":{"xt":"urn:btih:4dd9d96770d6364f63d9a374c6b1b0adeb6106ba","amp;dn":"Dead.Space.Aftermath.2011.DVDRip.Xvid.AC3.-Spasm","amp;tr":["udp%3A%2F%2Ftracker.openbittorrent.com%3A80","udp%3A%2F%2Fopen.demonii.com%3A1337","udp%3A%2F%2Ftracker.coppersurfer.tk%3A6969","udp%3A%2F%2Fexodus.desync.com%3A6969"],"infoHash":"4dd9d96770d6364f63d9a374c6b1b0adeb6106ba","infoHashBuffer":{"type":"Buffer","data":[77,217,217,103,112,214,54,79,99,217,163,116,198,177,176,173,235,97,6,186]},"announce":[],"urlList":[]}}